<svg width="20" height="18" viewBox="0 0 20 18" fill="none" xmlns="http://www.w3.org/2000/svg">
<path d="M15 14H11M18.989 7C19 7.57703 19 8.23647 19 9C19 11.8003 19 13.2004 18.455 14.27C17.9757 15.2108 17.2108 15.9757 16.27 16.455C15.2004 17 13.8003 17 11 17H9C6.19974 17 4.79961 17 3.73005 16.455C2.78924 15.9757 2.02433 15.2108 1.54497 14.27C1 13.2004 1 11.8003 1 9C1 8.23647 1 7.57703 1.01105 7M18.989 7C18.9595 5.46078 18.8514 4.50797 18.455 3.73005C17.9757 2.78924 17.2108 2.02433 16.27 1.54497C15.2004 1 13.8003 1 11 1H9C6.19974 1 4.79961 1 3.73005 1.54497C2.78924 2.02433 2.02433 2.78924 1.54497 3.73005C1.14859 4.50797 1.04052 5.46078 1.01105 7M18.989 7H1.01105" stroke="#9292AB" stroke-width="1.5" stroke-linecap="round"/>
</svg>
