<svg xmlns="http://www.w3.org/2000/svg" width="24" height="24" viewBox="0 0 24 24" fill="none">
  <circle cx="12" cy="12" r="12" fill="#616184"/>
  <path d="M8.866 8.267a1.5 1.5 0 0 0 1.5 1.5v1a2.5 2.5 0 0 1-2.5-2.5h1Zm1.5 1.5a1.5 1.5 0 0 0 1.5-1.5h1a2.5 2.5 0 0 1-2.5 2.5v-1Zm1.5-1.5a1.5 1.5 0 0 0-1.5-1.5v-1a2.5 2.5 0 0 1 2.5 2.5h-1Zm-1.5-1.5a1.5 1.5 0 0 0-1.5 1.5h-1a2.5 2.5 0 0 1 2.5-2.5v1Zm2 6h-4v-1h4v1Zm-4 3h4v1h-4v-1Zm4 0a1.5 1.5 0 0 0 1.5-1.5h1a2.5 2.5 0 0 1-2.5 2.5v-1Zm-5.5-1.5a1.5 1.5 0 0 0 1.5 1.5v1a2.5 2.5 0 0 1-2.5-2.5h1Zm1.5-1.5a1.5 1.5 0 0 0-1.5 1.5h-1a2.5 2.5 0 0 1 2.5-2.5v1Zm4-1a2.5 2.5 0 0 1 2.5 2.5h-1a1.5 1.5 0 0 0-1.5-1.5v-1Zm.833-1.741a.586.586 0 0 1 .501-.26 1.5 1.5 0 0 0 0-3 .586.586 0 0 1-.515-.28c-.176-.277-.087-.669.238-.704a2.5 2.5 0 1 1 0 4.97c-.325-.036-.414-.428-.238-.704l.014-.022Zm2.029 5.285a.422.422 0 0 1 .356-.211h.116a1.5 1.5 0 1 0 0-3h-.116a.422.422 0 0 1-.356-.211c-.185-.309.015-.79.375-.79h.097a2.5 2.5 0 1 1 0 5h-.097c-.36 0-.56-.48-.375-.788Z" fill="#fff"/>
</svg>
