<svg xmlns="http://www.w3.org/2000/svg" width="20" height="20" viewBox="0 0 20 20" fill="none">
  <path d="M5.21783 18.9384L5.1005 19.6792H5.1005L5.21783 18.9384ZM1.06156 14.7822L1.80232 14.6648L1.06156 14.7822ZM18.9384 14.7822L19.6792 14.8995V14.8995L18.9384 14.7822ZM14.7822 18.9384L14.8995 19.6792H14.8995L14.7822 18.9384ZM18.6 8.54957C18.3513 8.21837 17.8811 8.15156 17.5499 8.40032C17.2187 8.64909 17.1519 9.11924 17.4007 9.45043L18.6 8.54957ZM2.59931 9.45043C2.84808 9.11924 2.78126 8.64909 2.45007 8.40032C2.11888 8.15156 1.64873 8.21838 1.39996 8.54957L2.59931 9.45043ZM10.75 1C10.75 0.585786 10.4142 0.25 10 0.25C9.58579 0.25 9.25 0.585786 9.25 1H10.75ZM6.58768 10.534C6.33033 10.2095 5.8586 10.155 5.53403 10.4123C5.20946 10.6697 5.15497 11.1414 5.41232 11.466L6.58768 10.534ZM7.39785 12.763L6.81016 13.2289L7.39785 12.763ZM12.6022 12.763L12.0145 12.297L12.6022 12.763ZM14.5877 11.466C14.845 11.1414 14.7905 10.6697 14.466 10.4123C14.1414 10.155 13.6697 10.2095 13.4123 10.534L14.5877 11.466ZM9.74933 14.9801L9.63133 15.7208L9.63133 15.7208L9.74933 14.9801ZM10.2507 14.9801L10.3687 15.7208L10.3687 15.7208L10.2507 14.9801ZM18.25 12V13H19.75V12H18.25ZM13 18.25H7V19.75H13V18.25ZM1.75 13V12H0.25V13H1.75ZM7 18.25C6.04233 18.25 5.65082 18.2477 5.33515 18.1977L5.1005 19.6792C5.56216 19.7523 6.09965 19.75 7 19.75V18.25ZM0.25 13C0.25 13.9003 0.247672 14.4378 0.320792 14.8995L1.80232 14.6648C1.75233 14.3492 1.75 13.9577 1.75 13H0.25ZM5.33515 18.1977C3.51661 17.9096 2.09035 16.4834 1.80232 14.6648L0.320792 14.8995C0.710478 17.3599 2.64012 19.2895 5.1005 19.6792L5.33515 18.1977ZM18.25 13C18.25 13.9577 18.2477 14.3492 18.1977 14.6648L19.6792 14.8995C19.7523 14.4378 19.75 13.9003 19.75 13H18.25ZM13 19.75C13.9003 19.75 14.4378 19.7523 14.8995 19.6792L14.6648 18.1977C14.3492 18.2477 13.9577 18.25 13 18.25V19.75ZM18.1977 14.6648C17.9096 16.4834 16.4834 17.9096 14.6648 18.1977L14.8995 19.6792C17.3599 19.2895 19.2895 17.3599 19.6792 14.8995L18.1977 14.6648ZM19.75 12C19.75 10.7064 19.3219 9.51065 18.6 8.54957L17.4007 9.45043C17.9342 10.1607 18.25 11.0424 18.25 12H19.75ZM1.75 12C1.75 11.0424 2.06583 10.1607 2.59931 9.45043L1.39996 8.54957C0.678064 9.51065 0.25 10.7064 0.25 12H1.75ZM9.25 1V14H10.75V1H9.25ZM5.41232 11.466L6.81016 13.2289L7.98553 12.297L6.58768 10.534L5.41232 11.466ZM13.1898 13.2289L14.5877 11.466L13.4123 10.534L12.0145 12.297L13.1898 13.2289ZM6.81016 13.2289C7.35616 13.9176 7.80475 14.4852 8.20551 14.8875C8.60962 15.2932 9.05816 15.6294 9.63133 15.7208L9.86734 14.2395C9.76116 14.2225 9.59132 14.1532 9.26822 13.8289C8.94177 13.5012 8.55429 13.0143 7.98553 12.297L6.81016 13.2289ZM12.0145 12.297C11.4457 13.0143 11.0582 13.5012 10.7318 13.8289C10.4087 14.1532 10.2388 14.2225 10.1327 14.2395L10.3687 15.7208C10.9418 15.6294 11.3904 15.2932 11.7945 14.8875C12.1953 14.4852 12.6438 13.9175 13.1898 13.2289L12.0145 12.297ZM9.63133 15.7208C9.75344 15.7402 9.87661 15.75 10 15.75V14.25C9.95594 14.25 9.91168 14.2465 9.86734 14.2395L9.63133 15.7208ZM10 15.75C10.1234 15.75 10.2466 15.7402 10.3687 15.7208L10.1327 14.2395C10.0883 14.2465 10.0441 14.25 10 14.25V15.75ZM9.25 14V15H10.75V14H9.25Z" fill="#B6B6C6"/>
</svg>