<svg xmlns="http://www.w3.org/2000/svg" width="18" height="19" viewBox="0 0 18 19" fill="none">
  <path d="M2.7 14.8473H6.516C6.63445 14.848 6.75186 14.8253 6.86152 14.7805C6.97117 14.7358 7.0709 14.6698 7.155 14.5864L13.383 8.35122L15.939 5.84994C16.0234 5.7663 16.0903 5.66679 16.136 5.55715C16.1817 5.4475 16.2052 5.3299 16.2052 5.21113C16.2052 5.09235 16.1817 4.97475 16.136 4.86511C16.0903 4.75547 16.0234 4.65595 15.939 4.57231L12.123 0.71243C12.0393 0.628099 11.9398 0.561164 11.8301 0.515485C11.7204 0.469807 11.6028 0.446289 11.484 0.446289C11.3652 0.446289 11.2476 0.469807 11.1379 0.515485C11.0282 0.561164 10.9287 0.628099 10.845 0.71243L8.307 3.25869L2.061 9.49389C1.97759 9.57796 1.91159 9.67766 1.86681 9.78728C1.82202 9.89691 1.79932 10.0143 1.8 10.1327V13.9476C1.8 14.1862 1.89482 14.4151 2.0636 14.5838C2.23239 14.7525 2.46131 14.8473 2.7 14.8473ZM11.484 2.61988L14.031 5.16614L12.753 6.44377L10.206 3.89751L11.484 2.61988ZM3.6 10.5016L8.937 5.16614L11.484 7.7124L6.147 13.0479H3.6V10.5016ZM17.1 16.6468H0.9C0.661305 16.6468 0.432387 16.7416 0.263604 16.9103C0.0948211 17.0791 0 17.3079 0 17.5466C0 17.7852 0.0948211 18.014 0.263604 18.1828C0.432387 18.3515 0.661305 18.4463 0.9 18.4463H17.1C17.3387 18.4463 17.5676 18.3515 17.7364 18.1828C17.9052 18.014 18 17.7852 18 17.5466C18 17.3079 17.9052 17.0791 17.7364 16.9103C17.5676 16.7416 17.3387 16.6468 17.1 16.6468Z" fill="#F5814E"/>
</svg>