<svg xmlns="http://www.w3.org/2000/svg" width="18" height="21" viewBox="0 0 18 21" fill="none">
  <path d="M13.571 7.07v-.937a4.704 4.704 0 0 0-1.293-3.295A4.473 4.473 0 0 0 9.09 1.446H9a4.468 4.468 0 0 0-3.213 1.326 4.7 4.7 0 0 0-1.358 3.267V7.07M2.778 8.195h12.444c.982 0 1.778.84 1.778 1.875v7.5c0 1.036-.796 1.875-1.778 1.875H2.778c-.982 0-1.778-.84-1.778-1.875v-7.5c0-1.035.796-1.875 1.778-1.875Zm8.508 5.625c0 1.243-1.024 2.25-2.286 2.25s-2.286-1.007-2.286-2.25c0-1.242 1.024-2.25 2.286-2.25s2.286 1.008 2.286 2.25Z" stroke="#5E6670" stroke-width="1.5" stroke-miterlimit="10" stroke-linecap="square"/>
</svg>
