<svg width="24" height="24" viewBox="0 0 24 24" fill="none" xmlns="http://www.w3.org/2000/svg">
<g id="Group 48097255">
<circle id="Ellipse 5936" cx="12" cy="12" r="12" transform="rotate(-180 12 12)" fill="#D72638"/>
<path id="Vector 138" d="M12.75 7.28544C12.75 6.87122 12.4142 6.53544 12 6.53544C11.5858 6.53544 11.25 6.87122 11.25 7.28544L12.75 7.28544ZM11.4697 17.6729C11.7626 17.9658 12.2374 17.9658 12.5303 17.6729L17.3033 12.8999C17.5962 12.607 17.5962 12.1322 17.3033 11.8393C17.0104 11.5464 16.5355 11.5464 16.2426 11.8393L12 16.0819L7.75736 11.8393C7.46447 11.5464 6.98959 11.5464 6.6967 11.8393C6.40381 12.1322 6.40381 12.607 6.6967 12.8999L11.4697 17.6729ZM11.25 7.28544L11.25 17.1426L12.75 17.1426L12.75 7.28544L11.25 7.28544Z" fill="white"/>
</g>
</svg>
