<svg xmlns="http://www.w3.org/2000/svg" width="18" height="18" viewBox="0 0 18 18" fill="none">
  <path d="M7.99052 17.8093C7.12623 17.8093 6.39253 17.2871 6.07424 16.5502L5.5122 15.2488L4.54689 16.2141C3.7312 17.0298 2.41094 17.0298 1.59521 16.2141C0.779516 15.3984 0.779482 14.0781 1.59521 13.2624L2.56052 12.2971L1.25911 11.7351C0.522797 11.4171 0 10.6837 0 9.81883C0 8.83693 0.674811 8.0203 1.57963 7.79412L9.45076 5.82632C10.1586 5.64933 10.9186 5.85968 11.4341 6.37521C11.9497 6.89073 12.16 7.6507 11.983 8.35859L10.0152 16.2297C9.78944 17.1329 8.97447 17.8093 7.99052 17.8093ZM5.74468 13.3367C5.78812 13.3367 5.83181 13.3408 5.8753 13.3491C6.10172 13.3923 6.292 13.545 6.38338 13.7566L7.35161 15.9985C7.45631 16.241 7.69992 16.4179 7.99049 16.4179C8.32311 16.4179 8.59155 16.1873 8.6653 15.8923L10.6331 8.02113C10.6931 7.78111 10.6247 7.53365 10.4502 7.35913C10.2757 7.18464 10.0282 7.11629 9.78822 7.17626L1.91708 9.14402C1.62203 9.2178 1.39143 9.48625 1.39143 9.81883C1.39143 10.1101 1.56902 10.3533 1.81081 10.4577L4.05273 11.4259C4.26433 11.5173 4.41697 11.7076 4.46024 11.934C4.50352 12.1604 4.43186 12.3936 4.26885 12.5566L2.57909 14.2463C2.30717 14.5183 2.30717 14.9583 2.57909 15.2302C2.85101 15.5021 3.29109 15.5021 3.56298 15.2302L5.25273 13.5405C5.38443 13.4088 5.56195 13.3367 5.74468 13.3367Z" fill="#9292AB"/>
  <path d="M17.1192 7.98225H14.3363C13.9521 7.98225 13.6406 7.67078 13.6406 7.28654C13.6406 6.90229 13.9521 6.59082 14.3363 6.59082H17.1192C17.5035 6.59082 17.8149 6.90229 17.8149 7.28654C17.8149 7.67078 17.5035 7.98225 17.1192 7.98225Z" fill="#9292AB"/>
  <path d="M14.5895 12.6994L12.6218 10.7316C12.35 10.4599 12.35 10.0194 12.6218 9.74772C12.8935 9.47604 13.334 9.476 13.6056 9.74772L15.5734 11.7155C15.8451 11.9872 15.8451 12.4277 15.5734 12.6994C15.3017 12.971 14.8612 12.971 14.5895 12.6994Z" fill="#9292AB"/>
  <path d="M7.03487 5.19253L5.06707 3.22476C4.79535 2.95305 4.79535 2.51256 5.06707 2.24088C5.33878 1.9692 5.77927 1.96917 6.05095 2.24088L8.01875 4.20865C8.29046 4.48036 8.29046 4.92085 8.01875 5.19253C7.74704 5.46421 7.30654 5.46421 7.03487 5.19253Z" fill="#9292AB"/>
  <path d="M10.4809 4.1743C10.0966 4.1743 9.78516 3.86283 9.78516 3.47859V0.695717C9.78516 0.311473 10.0966 0 10.4809 0C10.8651 0 11.1766 0.311473 11.1766 0.695717V3.47859C11.1766 3.86283 10.8651 4.1743 10.4809 4.1743Z" fill="#9292AB"/>
  <path d="M12.9421 5.19254C12.6704 4.92083 12.6704 4.48034 12.9421 4.20866L14.9098 2.24089C15.1815 1.96918 15.622 1.96918 15.8937 2.24089C16.1654 2.51261 16.1654 2.9531 15.8937 3.22478L13.9259 5.19254C13.6543 5.46422 13.2138 5.46422 12.9421 5.19254Z" fill="#9292AB"/>
</svg>