<svg xmlns="http://www.w3.org/2000/svg" width="20" height="21" viewBox="0 0 20 21" fill="none">
  <path fill="#5E6670" d="M10.628 20.446H9.372a1.843 1.843 0 0 1-1.84-1.84v-.426a8.073 8.073 0 0 1-1.255-.52l-.3.301a1.841 1.841 0 0 1-2.605 0l-.887-.887a1.841 1.841 0 0 1 0-2.605l.301-.3a8.073 8.073 0 0 1-.52-1.254H1.84A1.843 1.843 0 0 1 0 11.074V9.819c0-1.016.826-1.841 1.841-1.841h.425c.138-.432.312-.851.52-1.254l-.3-.301a1.841 1.841 0 0 1 0-2.604l.887-.887a1.841 1.841 0 0 1 2.604 0l.3.3a8.082 8.082 0 0 1 1.254-.52v-.425c0-1.015.826-1.84 1.841-1.84h1.256c1.015 0 1.84.825 1.84 1.84v.425c.432.138.852.312 1.255.52l.3-.3a1.841 1.841 0 0 1 2.605 0l.887.887a1.84 1.84 0 0 1 0 2.604l-.301.3c.208.404.382.823.52 1.255h.425c1.015 0 1.841.825 1.841 1.84v1.256a1.843 1.843 0 0 1-1.841 1.841h-.425a8.067 8.067 0 0 1-.52 1.254l.3.3c.73.73.71 1.896 0 2.605l-.887.887c-.71.71-1.876.728-2.604 0l-.3-.3a8.08 8.08 0 0 1-1.254.52v.424a1.843 1.843 0 0 1-1.841 1.841ZM6.473 16.43c.56.332 1.162.582 1.79.744.26.066.44.3.44.567v.865c0 .37.3.67.67.67h1.255a.67.67 0 0 0 .669-.67v-.865c0-.267.18-.5.44-.567a6.907 6.907 0 0 0 1.79-.743c.23-.137.523-.1.712.09l.613.612a.67.67 0 0 0 .946 0l.888-.887a.67.67 0 0 0 0-.946l-.613-.614a.586.586 0 0 1-.09-.712c.331-.56.581-1.162.743-1.79.067-.26.3-.44.568-.44h.865c.369 0 .67-.3.67-.67V9.82a.67.67 0 0 0-.67-.67h-.865c-.268 0-.5-.18-.568-.439a6.906 6.906 0 0 0-.743-1.79.586.586 0 0 1 .09-.713l.613-.613a.669.669 0 0 0 0-.946L15.8 3.76a.67.67 0 0 0-.947 0l-.613.613a.586.586 0 0 1-.712.09 6.908 6.908 0 0 0-1.79-.743.586.586 0 0 1-.44-.567v-.866a.67.67 0 0 0-.67-.669H9.373a.67.67 0 0 0-.669.67v.865c0 .267-.18.5-.44.567a6.907 6.907 0 0 0-1.79.743.586.586 0 0 1-.712-.09l-.613-.613a.669.669 0 0 0-.946 0l-.888.888a.67.67 0 0 0 0 .946l.613.613c.189.19.226.482.09.713a6.905 6.905 0 0 0-.743 1.79.586.586 0 0 1-.568.44h-.865a.67.67 0 0 0-.67.669v1.255c0 .369.301.67.67.67h.865c.268 0 .5.18.568.439.162.628.412 1.23.743 1.79a.586.586 0 0 1-.09.712l-.613.613a.669.669 0 0 0 0 .947l.887.887a.67.67 0 0 0 .947 0l.613-.613a.589.589 0 0 1 .712-.09Z"/>
  <path fill="#5E6670" d="M10 14.798a4.357 4.357 0 0 1-4.352-4.352c0-2.4 1.953-4.351 4.352-4.351 2.4 0 4.352 1.952 4.352 4.351 0 2.4-1.953 4.352-4.352 4.352Zm0-7.531a3.183 3.183 0 0 0-3.18 3.18A3.183 3.183 0 0 0 10 13.625a3.183 3.183 0 0 0 3.18-3.18A3.183 3.183 0 0 0 10 7.266Z"/>
</svg>