<svg xmlns="http://www.w3.org/2000/svg" width="14" height="13" viewBox="0 0 14 13" fill="none">
  <path d="M7.33334 4.25276C7.33334 3.97662 7.10948 3.75276 6.83334 3.75276C6.55719 3.75276 6.33334 3.97662 6.33334 4.25276H7.33334ZM5.31455 7.78278C5.1185 7.97725 5.11722 8.29383 5.31169 8.48988C5.50616 8.68593 5.82274 8.68721 6.01879 8.49274L5.31455 7.78278ZM6.33334 4.25276V6.14731H7.33334V4.25276H6.33334ZM6.01879 8.49274L6.59394 7.92221L5.8897 7.21225L5.31455 7.78278L6.01879 8.49274ZM12.1667 6.43494C12.1667 9.14074 9.81092 11.3904 6.83333 11.3904V12.3904C10.2991 12.3904 13.1667 9.75505 13.1667 6.43494H12.1667ZM6.83333 11.3904C3.85574 11.3904 1.5 9.14074 1.5 6.43494H0.5C0.5 9.75505 3.3676 12.3904 6.83333 12.3904V11.3904ZM1.5 6.43494C1.5 3.72913 3.85574 1.47949 6.83333 1.47949V0.479492C3.3676 0.479492 0.5 3.11482 0.5 6.43494H1.5ZM6.83333 1.47949C9.81092 1.47949 12.1667 3.72913 12.1667 6.43494H13.1667C13.1667 3.11482 10.2991 0.479492 6.83333 0.479492V1.47949ZM6.33334 6.14731C6.33334 6.54724 6.17363 6.93061 5.8897 7.21225L6.59394 7.92221C7.06716 7.4528 7.33334 6.81386 7.33334 6.14731H6.33334Z" fill="#D72638"/>
</svg>