<svg xmlns="http://www.w3.org/2000/svg" width="20" height="22" viewBox="0 0 20 22" fill="none">
  <path d="M12.7297 1C13.6962 1 14.4797 1.7835 14.4797 2.75C14.4797 3.7165 15.2632 4.5 16.2297 4.5H16.8191C18.0303 4.5 19.0301 5.42655 18.9838 6.6369C18.9028 8.7498 18.4917 12.0809 16.8899 15C16.4672 15.7702 15.8933 16.543 15.2558 17.2795C13.2759 19.567 12.286 20.7107 10.0009 20.7107C7.71577 20.7107 6.72582 19.567 4.7459 17.2795C4.10848 16.543 3.5345 15.7702 3.11188 15C1.55806 12.1683 1.12457 9.15954 1.02609 7.20867C0.965174 6.00211 1.96341 5.08333 3.1715 5.08333H3.48037C4.60795 5.08333 5.52204 4.16925 5.52204 3.04167C5.52204 1.91409 6.43612 1 7.5637 1H12.7297Z" stroke="white" stroke-width="1.5"/>
  <path d="M8.69084 7.98316C9.10316 6.67228 10.8985 6.67228 11.3108 7.98316C11.4952 8.5694 12.0241 8.96631 12.6208 8.96631C13.9551 8.96631 14.5099 10.7301 13.4304 11.5402C12.9476 11.9026 12.7456 12.5448 12.93 13.131C13.3424 14.4419 11.8899 15.532 10.8104 14.7218C10.3277 14.3595 9.67397 14.3595 9.19121 14.7218C8.11172 15.532 6.65929 14.4419 7.07161 13.131C7.25601 12.5448 7.054 11.9026 6.57124 11.5402C5.49176 10.7301 6.04654 8.96631 7.38086 8.96631C7.97758 8.96631 8.50644 8.5694 8.69084 7.98316Z" stroke="white" stroke-width="1.5"/>
</svg>