<svg width="24" height="24" viewBox="0 0 24 24" fill="none" xmlns="http://www.w3.org/2000/svg">
<g id="Group 48097255">
<circle id="Ellipse 5936" cx="12" cy="12" r="12" fill="#F26122"/>
<path id="Vector 138" d="M11.25 16.7146C11.25 17.1288 11.5858 17.4646 12 17.4646C12.4142 17.4646 12.75 17.1288 12.75 16.7146H11.25ZM12.5303 6.32709C12.2374 6.0342 11.7626 6.0342 11.4697 6.32709L6.6967 11.1001C6.40381 11.393 6.40381 11.8678 6.6967 12.1607C6.98959 12.4536 7.46447 12.4536 7.75736 12.1607L12 7.91808L16.2426 12.1607C16.5355 12.4536 17.0104 12.4536 17.3033 12.1607C17.5962 11.8678 17.5962 11.393 17.3033 11.1001L12.5303 6.32709ZM12.75 16.7146V6.85742H11.25V16.7146H12.75Z" fill="white"/>
</g>
</svg>
