<svg xmlns="http://www.w3.org/2000/svg" width="56" height="57" viewBox="0 0 56 57" fill="none">
  <path d="M31.2969 37.6562H46.5" stroke="#B5B8BD" stroke-width="2.5" stroke-miterlimit="10" stroke-linecap="round" stroke-linejoin="round"/>
  <path d="M20.9844 24.5313C20.9844 26.9476 19.0256 28.9062 16.6094 28.9062C14.1932 28.9062 12.2344 26.9476 12.2344 24.5313C12.2344 22.1149 14.1932 20.1563 16.6094 20.1563C19.0256 20.1563 20.9844 22.1149 20.9844 24.5313Z" stroke="#B5B8BD" stroke-width="2.5" stroke-miterlimit="10" stroke-linecap="round" stroke-linejoin="round"/>
  <path d="M16.6094 28.9063C12.3809 28.9063 8.95312 32.3341 8.95312 36.5625V37.6562H24.2656V36.5625C24.2656 32.3341 20.8378 28.9063 16.6094 28.9063Z" stroke="#B5B8BD" stroke-width="2.5" stroke-miterlimit="10" stroke-linecap="round" stroke-linejoin="round"/>
  <path d="M51.0781 10.8594H4.92187C3.10975 10.8594 1.64062 12.3285 1.64062 14.1406V43.6719C1.64062 45.484 3.10975 46.9531 4.92187 46.9531H51.0781C52.8902 46.9531 54.3594 45.484 54.3594 43.6719V14.1406C54.3594 12.3285 52.8902 10.8594 51.0781 10.8594Z" stroke="#B5B8BD" stroke-width="2.5" stroke-miterlimit="10" stroke-linecap="round" stroke-linejoin="round"/>
  <path d="M45.4609 26.7188C45.4609 30.3432 42.5227 33.2812 38.8984 33.2812C35.2741 33.2812 32.3359 30.3432 32.3359 26.7188C32.3359 23.0943 35.2741 20.1562 38.8984 20.1562C42.5227 20.1562 45.4609 23.0943 45.4609 26.7188Z" stroke="#B5B8BD" stroke-width="2.5" stroke-miterlimit="10" stroke-linecap="round" stroke-linejoin="round"/>
  <path d="M33.3262 28.4085C34.9013 27.1334 39.4467 25.3482 45.0272 28.4085" stroke="#B5B8BD" stroke-width="2.5"/>
  <path d="M38.8945 27.5635V32.7389" stroke="#B5B8BD" stroke-width="2.5"/>
</svg>