<svg width="16" height="19" viewBox="0 0 16 19" fill="none" xmlns="http://www.w3.org/2000/svg">
<path d="M15.0335 6.746C15.0242 6.66332 15.0061 6.58187 14.9795 6.503V6.422C14.9363 6.32946 14.8785 6.2444 14.8085 6.17L9.40854 0.77C9.33415 0.699995 9.24908 0.642273 9.15654 0.599H9.06654C8.97903 0.552203 8.88498 0.51883 8.78755 0.5H3.33354C2.61746 0.5 1.9307 0.784464 1.42436 1.29081C0.918008 1.79716 0.633545 2.48392 0.633545 3.2V15.8C0.633545 16.5161 0.918008 17.2028 1.42436 17.7092C1.9307 18.2155 2.61746 18.5 3.33354 18.5H12.3335C13.0496 18.5 13.7364 18.2155 14.2427 17.7092C14.7491 17.2028 15.0335 16.5161 15.0335 15.8V6.8V6.746ZM9.63354 3.569L11.9645 5.9H10.5335C10.2948 5.9 10.0659 5.80518 9.89715 5.6364C9.72837 5.46761 9.63354 5.23869 9.63354 5V3.569ZM13.2335 15.8C13.2335 16.0387 13.1387 16.2676 12.9699 16.4364C12.8012 16.6052 12.5722 16.7 12.3335 16.7H3.33354C3.09485 16.7 2.86593 16.6052 2.69715 16.4364C2.52837 16.2676 2.43354 16.0387 2.43354 15.8V3.2C2.43354 2.96131 2.52837 2.73239 2.69715 2.5636C2.86593 2.39482 3.09485 2.3 3.33354 2.3H7.83354V5C7.83354 5.71608 8.11801 6.40284 8.62436 6.90919C9.1307 7.41554 9.81746 7.7 10.5335 7.7H13.2335V15.8ZM8.99454 11.561L8.73354 11.831V9.5C8.73354 9.2613 8.63872 9.03239 8.46994 8.8636C8.30116 8.69482 8.07224 8.6 7.83354 8.6C7.59485 8.6 7.36593 8.69482 7.19715 8.8636C7.02837 9.03239 6.93354 9.2613 6.93354 9.5V11.831L6.67254 11.561C6.50307 11.3915 6.27322 11.2963 6.03354 11.2963C5.79387 11.2963 5.56402 11.3915 5.39454 11.561C5.22507 11.7305 5.12986 11.9603 5.12986 12.2C5.12986 12.4397 5.22507 12.6695 5.39454 12.839L7.19454 14.639C7.28014 14.7209 7.38107 14.7852 7.49154 14.828C7.59928 14.8756 7.71576 14.9002 7.83354 14.9002C7.95133 14.9002 8.06781 14.8756 8.17554 14.828C8.28602 14.7852 8.38695 14.7209 8.47254 14.639L10.2725 12.839C10.442 12.6695 10.5372 12.4397 10.5372 12.2C10.5372 11.9603 10.442 11.7305 10.2725 11.561C10.1031 11.3915 9.87322 11.2963 9.63354 11.2963C9.39387 11.2963 9.16402 11.3915 8.99454 11.561Z" fill="#636363"/>
</svg>
